<svg xmlns="http://www.w3.org/2000/svg" xmlns:xlink="http://www.w3.org/1999/xlink" version="1.1" width="1000" height="1000" viewBox="0 0 1000 1000" xml:space="preserve">
<desc>Created with Fabric.js 3.5.0</desc>
<defs>
</defs>
<rect x="0" y="0" width="100%" height="100%" fill="#ffffff"/>
<g transform="matrix(56.8182 0 0 56.8182 511.9906 500.0001)" id="113197">
<g style="" vector-effect="non-scaling-stroke">
		<g transform="matrix(1 0 0 1 0 0.001)">
<path style="stroke: none; stroke-width: 1; stroke-dasharray: none; stroke-linecap: butt; stroke-dashoffset: 0; stroke-linejoin: miter; stroke-miterlimit: 4; is-custom-font: none; font-file-url: none; fill: rgb(0,255,137); fill-rule: nonzero; opacity: 1;" transform=" translate(-8, -8.001)" d="M 6.826 10.88 H 10.5 V 12 h -5 V 4.002 h 5 v 1.12 H 6.826 V 7.4 h 3.457 v 1.073 H 6.826 v 2.408 Z" stroke-linecap="round"/>
</g>
		<g transform="matrix(1 0 0 1 0 0)">
<path style="stroke: none; stroke-width: 1; stroke-dasharray: none; stroke-linecap: butt; stroke-dashoffset: 0; stroke-linejoin: miter; stroke-miterlimit: 4; is-custom-font: none; font-file-url: none; fill: rgb(0,255,137); fill-rule: nonzero; opacity: 1;" transform=" translate(-8, -8)" d="M 2.5 0 A 2.5 2.5 0 0 0 0 2.5 v 11 A 2.5 2.5 0 0 0 2.5 16 h 11 a 2.5 2.5 0 0 0 2.5 -2.5 v -11 A 2.5 2.5 0 0 0 13.5 0 h -11 Z M 1 2.5 A 1.5 1.5 0 0 1 2.5 1 h 11 A 1.5 1.5 0 0 1 15 2.5 v 11 a 1.5 1.5 0 0 1 -1.5 1.5 h -11 A 1.5 1.5 0 0 1 1 13.5 v -11 Z" stroke-linecap="round"/>
</g>
</g>
</g>
</svg>