<svg version="1.2" xmlns="http://www.w3.org/2000/svg" viewBox="0 0 512 512" width="512" height="512">
	<title>logo</title>
	<style>
		tspan { white-space:pre } 
		.s0 { fill: #000000 } 
		.s1 { fill: #ffffff } 
		.t2 { font-size: 300px;fill: #000000;font-weight: 400;font-family: "SFProRounded-Regular", "SF Pro Rounded" } 
	</style>
	<path class="s0" d="m256 512c67.9 0 133-27 181-75 48-48 75-113.1 75-181 0-67.9-27-133-75-181-48-48-113.1-75-181-75-67.9 0-133 27-181 75-48 48-75 113.1-75 181 0 67.9 27 133 75 181 48 48 113.1 75 181 75zm-56.6-199.4c31.2 31.2 81.9 31.2 113.1 0 9.4-9.4 24.6-9.4 33.9 0 9.3 9.4 9.4 24.6 0 33.9-50 50-131 50-181 0-50-50-50-131 0-181 50-50 131-50 181 0 9.4 9.4 9.4 24.6 0 33.9-9.4 9.3-24.6 9.4-33.9 0-31.2-31.2-81.9-31.2-113.1 0-31.2 31.2-31.2 81.9 0 113.1z"/>
	<path id="Shape 1" fill-rule="evenodd" class="s1" d="m256 512c-141.6 0-256-114.4-256-256 0-141.6 114.4-256 256-256 141.6 0 256 114.4 256 256 0 141.6-114.4 256-256 256z"/>
	<text id="E" style="transform: matrix(1,0,0,1,79,0)" >
		<tspan x="93.7" y="350.7" class="t2">E
</tspan>
	</text>
</svg>